:SAMPLES-PER-SECOND 30
:FRAME-RANGE 1-2643
:FULLY-SPECIFIED
:DEGREES
744
root  -87.6964 38.3601 18.1207 -177.566 -3.2886 175.485
RightUpLeg  10.4374 1.87549 0.447151
RightLeg  17.5719 -1.62696 -1.1327
RightFoot  -17.5423 0.0799283 3.66893
RightToes  7.56698e-010 0 -3.6325e-017
Spine  13.1865 1.98878 1.59416
Spine1  -2.23924 2.61776 -3.18339
HEad  -10.5057 -18.3663 3.63175
LeftShoulder1  0.525197 1.81473 -24.8529
LeftArm  -21.0547 13.85 -12.7537
LeftForeArm  0.958411 1.42584 -13.8511
LeftHand  0.252439 1.92514 -8.97433
RightShoulder  7.97591 11.0415 48.024
RightArm  10.2143 0.915677 16.0085
RightForeArm  10.8859 51.1923 13.168
RightHand  0.248023 0.71347 4.66127
LeftUpLeg  -22.942 3.95156 0.574226
LeftLeg  5.6247 -2.79685 -3.47878
LeftFoot  -2.64078 1.05519 -13.6122
LeftToes  1.48244e-010 1.61973e-010 3.308e-011
745
root  -88.2552 37.9927 16.0941 -178.63 -3.08337 175.069
RightUpLeg  12.2228 2.03223 -1.22518
RightLeg  22.8559 0.690032 0.101289
RightFoot  -17.0809 0.280924 7.90688
RightToes  7.56698e-010 0 -3.6325e-017
Spine  13.0638 1.90874 0.887252
Spine1  -2.15007 2.51938 -3.402
HEad  -9.13581 -19.9566 4.27114
LeftShoulder1  0.473966 1.95168 -24.2684
LeftArm  -19.2214 13.8343 -11.8965
LeftForeArm  -4.22778 4.93093 -14.4702
LeftHand  0.159391 3.13714 -9.44029
RightShoulder  7.88335 10.8453 48.1181
RightArm  10.238 0.394504 16.1567
RightForeArm  11.1582 50.9057 13.0029
RightHand  0.291527 0.913264 5.29418
LeftUpLeg  -22.2659 4.38032 -1.49829
LeftLeg  7.27174 -4.00669 -4.23195
LeftFoot  6.80615 1.44938 -9.32074
LeftToes  1.48244e-010 1.61973e-010 3.308e-011
746
root  -88.7508 37.4813 14.2202 179.945 -3.20816 174.048
RightUpLeg  11.0938 1.99965 -3.71367
RightLeg  33.6106 3.429 2.20552
RightFoot  -13.9442 0.237138 14.5529
RightToes  7.56698e-010 0 -3.6325e-017
Spine  14.571 1.96952 -1.67225
Spine1  -2.89422 2.01757 -2.40171
HEad  -9.0149 -23.5612 5.72004
LeftShoulder1  0.47805 1.93989 -24.3008
LeftArm  -17.5177 13.4022 -11.7839
LeftForeArm  -2.39441 6.51817 -15.1591
LeftHand  0.172179 3.11678 -10.0197
RightShoulder  7.74491 10.4402 48.6531
RightArm  11.2832 0.428381 15.7384
RightForeArm  10.0921 48.2312 11.8389
RightHand  0.258243 0.902221 4.68955
LeftUpLeg  -23.7257 8.82965 -5.97402
LeftLeg  18.316 -8.80538 -3.1022
LeftFoot  4.46202 0.743325 -5.54921
LeftToes  1.48244e-010 1.61973e-010 3.308e-011
747
root  -89.169 36.9964 12.4002 178.464 -3.37479 172.968
RightUpLeg  6.36431 2.66191 -5.89551
RightLeg  48.4584 3.64999 4.07087
RightFoot  -3.96371 -1.05961 15.9187
RightToes  7.56698e-010 0 -3.6325e-017
Spine  15.5722 2.03196 -3.97362
Spine1  -2.2874 1.53428 -0.997324
HEad  -11.4037 -29.572 9.04745
LeftShoulder1  0.655499 1.46404 -25.9431
LeftArm  -16.2901 11.1091 -11.987
LeftForeArm  1.44759 6.22996 -15.6155
LeftHand  0.255076 2.40589 -10.6781
RightShoulder  8.03596 10.5815 49.9732
RightArm  12.0114 1.18385 15.3084
RightForeArm  8.51908 42.6642 9.76204
RightHand  0.249797 1.36418 4.17627
LeftUpLeg  -23.8275 7.33762 -6.9071
LeftLeg  28.0214 -6.94279 -3.65125
LeftFoot  -2.67103 0.348461 -4.38466
LeftToes  1.48244e-010 1.61973e-010 3.308e-011
748
root  -89.5446 36.6286 10.805 177.218 -0.866089 172.095
RightUpLeg  -0.479442 5.16453 -7.33406
RightLeg  61.2192 1.74895 2.94368
RightFoot  9.59391 -2.34442 12.9993
RightToes  7.56698e-010 0 -3.6325e-017
Spine  15.6663 2.42718 -4.47649
Spine1  0.0100463 2.03745 -3.57852
HEad  -13.6532 -36.0741 11.8892
LeftShoulder1  0.804815 1.04879 -26.6189
LeftArm  -15.4674 8.5984 -14.4051
LeftForeArm  4.20777 6.03567 -15.8634
LeftHand  0.271513 1.99177 -9.829
RightShoulder  8.95504 11.867 51.0113
RightArm  15.1643 1.84562 15.6887
RightForeArm  5.07698 34.1914 7.35123
RightHand  0.206454 2.00101 3.07668
LeftUpLeg  -22.6436 8.81779 -7.55338
LeftLeg  33.9386 -5.56904 -3.64956
LeftFoot  -8.30445 0.139274 -3.37442
LeftToes  1.48244e-010 1.61973e-010 3.308e-011
749
root  -89.8761 36.4801 9.18464 176.461 1.50342 171.648
RightUpLeg  -7.05614 6.44271 -8.45423
RightLeg  70.5667 -0.374278 -2.02216
RightFoot  5.56479 -1.9065 13.0356
RightToes  7.56698e-010 0 -3.6325e-017
Spine  16.0802 2.31697 -5.68746
Spine1  -0.175822 1.58174 -3.84993
HEad  -13.68 -41.7069 13.0612
LeftShoulder1  0.872679 0.921117 -27.6591
LeftArm  -14.4574 7.25192 -17.7025
LeftForeArm  5.44406 5.00678 -16.1179
LeftHand  0.221912 2.01916 -8.18248
RightShoulder  9.23548 12.331 51.0635
RightArm  23.6027 2.53685 17.3247
RightForeArm  -0.230746 25.962 5.58628
RightHand  0.180187 2.48468 2.4595
LeftUpLeg  -20.459 10.1125 -7.81799
LeftLeg  36.9722 -4.46585 -3.2091
LeftFoot  -12.8929 0.0335354 -3.23006
LeftToes  1.48244e-010 1.61973e-010 3.308e-011
750
root  -90.1827 36.6122 7.4892 175.688 2.642 171.798
RightUpLeg  -12.5783 5.84268 -8.66244
RightLeg  74.2108 -1.20777 -5.96791
RightFoot  2.19109 -1.06598 9.09301
RightToes  7.56698e-010 0 -3.6325e-017
Spine  16.4587 1.56289 -6.89804
Spine1  -0.712743 0.314272 -2.33926
HEad  -14.0393 -47.1523 14.3212
LeftShoulder1  0.998254 0.630953 -28.6456
LeftArm  -14.5752 5.70128 -22.173
LeftForeArm  7.39385 3.70285 -16.0124
LeftHand  0.187929 1.93828 -6.80807
RightShoulder  8.93225 11.9413 50.6418
RightArm  28.3562 2.55264 18.5178
RightForeArm  -1.93222 19.7053 7.2785
RightHand  0.225969 2.87505 2.95545
LeftUpLeg  -16.6175 10.6455 -7.61324
LeftLeg  37.1075 -3.78632 -2.67338
LeftFoot  -15.9692 -0.0225398 -2.92611
LeftToes  1.48244e-010 1.61973e-010 3.308e-011
751
root  -90.436 36.9063 5.75969 175.01 3.76385 172.203
RightUpLeg  -17.021 5.0182 -8.01353
RightLeg  72.8083 -1.93309 -8.0201
RightFoot  -0.948553 -0.631068 6.85915
RightToes  7.56698e-010 0 -3.6325e-017
Spine  16.3521 0.650586 -7.85441
Spine1  -0.675103 -0.991731 -0.695329
HEad  -15.3605 -51.5439 16.4096
LeftShoulder1  1.19731 0.0925268 -29.0113
LeftArm  -14.7252 3.53704 -27.3864
LeftForeArm  10.667 2.11244 -15.7213
LeftHand  0.204541 1.24726 -6.00732
RightShoulder  8.60269 11.4269 50.4591
RightArm  25.3655 1.68598 18.2824
RightForeArm  1.74316 14.9095 11.3529
RightHand  0.222929 2.70681 2.98699
LeftUpLeg  -11.8267 11.354 -7.04237
LeftLeg  35.2643 -3.42407 -2.20844
LeftFoot  -18.0808 -0.0668092 -2.97495
LeftToes  1.48244e-010 1.61973e-010 3.308e-011
752
root  -90.6411 37.2971 4.01453 174.783 5.09979 172.714
RightUpLeg  -20.4215 4.08926 -6.71425
RightLeg  66.6815 -2.94454 -8.13917
RightFoot  -3.93019 -0.441515 6.3961
RightToes  7.56698e-010 0 -3.6325e-017
Spine  15.8134 -0.352354 -8.74095
Spine1  -0.682936 -2.32175 1.28252
HEad  -16.217 -54.5774 18.0514
LeftShoulder1  1.34874 -0.342461 -28.9841
LeftArm  -12.8883 0.594249 -32.5611
LeftForeArm  13.9383 0.283345 -15.624
LeftHand  0.232982 0.543101 -5.71027
RightShoulder  7.8335 10.3021 49.7033
RightArm  23.4597 0.603037 18.1107
RightForeArm  4.74844 11.0991 13.9921
RightHand  0.167878 2.60238 2.23473
LeftUpLeg  -6.92694 12.1273 -6.38999
LeftLeg  32.0349 -2.90662 -1.58021
LeftFoot  -18.9638 -0.114829 -3.42949
LeftToes  1.48244e-010 1.61973e-010 3.308e-011
753
root  -90.808 37.7073 2.25535 174.882 6.505 173.322
RightUpLeg  -22.2588 2.59815 -4.86651
RightLeg  56.3028 -4.17963 -7.14149
RightFoot  -6.40142 -0.330011 6.63194
RightToes  7.56698e-010 0 -3.6325e-017
Spine  15.2821 -1.50403 -9.24089
Spine1  -1.19294 -3.65725 3.16754
HEad  -16.9274 -56.1417 19.3365
LeftShoulder1  1.4468 -0.670031 -28.5768
LeftArm  -9.55458 -2.27807 -37.0649
LeftForeArm  16.6391 -2.73112 -15.2815
LeftHand  0.309984 -0.44617 -6.15733
RightShoulder  6.76612 8.63589 48.8325
RightArm  23.0517 -0.642795 17.5431
RightForeArm  8.09177 8.77643 15.2073
RightHand  0.126021 2.60714 1.62498
LeftUpLeg  -2.12868 12.6895 -5.66292
LeftLeg  28.1861 -2.45766 -1.06107
LeftFoot  -18.6789 -0.150471 -4.09139
LeftToes  1.48244e-010 1.61973e-010 3.308e-011
754
root  -90.9187 38.0368 0.510367 175.456 8.18436 174.062
RightUpLeg  -22.67 0.499132 -2.17962
RightLeg  42.2369 -6.14475 -6.2261
RightFoot  -7.40805 -0.285518 6.8377
RightToes  7.56698e-010 0 -3.6325e-017
Spine  14.3913 -2.60517 -9.25224
Spine1  -1.54219 -4.81313 4.96447
HEad  -17.9387 -56.4175 20.7722
LeftShoulder1  1.51421 -0.902216 -28.276
LeftArm  -3.2528 -4.83117 -40.4368
LeftForeArm  14.6589 -8.08113 -13.9986
LeftHand  0.39802 -0.876179 -7.3203
RightShoulder  5.51044 6.6617 47.4923
RightArm  25.8183 -2.35144 16.8154
RightForeArm  7.32341 9.35971 15.1012
RightHand  0.0849669 2.46595 1.05854
LeftUpLeg  1.90261 13.5471 -4.7485
LeftLeg  24.7365 -2.16635 -0.734456
LeftFoot  -18.1662 -0.230318 -5.68414
LeftToes  1.48244e-010 1.61973e-010 3.308e-011
755
root  -90.9618 38.234 -1.26379 176.102 10.3334 175.043
RightUpLeg  -21.1716 -2.6783 1.77768
RightLeg  25.5583 -9.72751 -5.24754
RightFoot  -7.66766 -0.28115 7.12951
RightToes  7.56698e-010 0 -3.6325e-017
Spine  13.2684 -3.44554 -8.64884
Spine1  -1.56096 -5.63916 6.46027
HEad  -18.3238 -55.8306 21.2558
LeftShoulder1  1.58893 -1.23382 -27.4284
LeftArm  2.87791 -6.78832 -43.255
LeftForeArm  8.58514 -13.1806 -11.6815
LeftHand  0.47235 -0.88443 -8.68603
RightShoulder  4.25033 4.6237 45.7952
RightArm  28.4733 -3.92351 15.9371
RightForeArm  4.99031 10.4618 14.7267
RightHand  0.086068 2.36957 1.09617
LeftUpLeg  5.54212 14.947 -3.36841
LeftLeg  22.2713 -2.20897 -0.663393
LeftFoot  -17.6716 -0.307469 -7.46521
LeftToes  1.48244e-010 1.61973e-010 3.308e-011
